<svg width="63" height="65" viewBox="0 0 63 65" fill="none" xmlns="http://www.w3.org/2000/svg">
<g clip-path="url(#clip0)">
<path d="M30.7633 12.2719C29.9972 12.2719 29.4079 12.8591 29.3489 13.6224V13.7398C29.1721 13.6224 29.1132 13.505 28.9953 13.4463C28.5239 12.9178 27.9345 12.5068 27.2863 12.3306C25.9308 11.8609 24.6932 11.8609 23.4556 12.2132C21.6286 12.8004 20.6268 14.0921 20.0964 15.7949C18.9177 19.4354 18.9766 23.3108 19.7428 27.3035C20.0964 29.1238 21.334 30.4155 22.9841 30.8853C25.1646 31.4725 27.0505 31.1201 28.5828 29.8871C28.6417 29.8284 28.7596 29.7697 28.9364 29.6522C28.9364 29.7697 28.9364 29.8284 28.9364 29.9458C28.9364 30.4743 29.4079 30.944 29.9383 30.944C31.5295 30.944 33.1207 30.944 34.7119 30.944C35.2423 30.944 35.7138 30.4743 35.7138 29.9458C35.7727 24.5438 35.8316 19.2005 35.9495 13.7986C35.9495 13.0352 35.3012 12.3893 34.5351 12.3893C33.2975 12.2719 32.0009 12.2719 30.7633 12.2719ZM29.2311 23.9566C29.2311 24.9548 28.3471 25.7182 27.2863 25.542C26.5201 25.3659 25.9897 24.6613 25.9897 23.8979V18.7308C25.9897 17.9675 26.5201 17.2629 27.2863 17.0867C28.2881 16.9106 29.2311 17.6739 29.2311 18.6721V23.9566Z" fill="white"/>
<path d="M59.5818 31.7661C57.8728 31.7661 56.3994 32.9404 56.3994 34.5258C56.3405 36.9919 56.3994 39.5167 56.4583 41.9829C56.5173 43.6269 57.8138 44.6838 59.6997 44.6838C61.5856 44.6838 62.8232 43.6857 62.8821 41.9829C62.941 40.6911 62.8821 39.458 62.8232 38.1662C62.8232 37.5791 62.8232 36.9919 62.8232 36.4047C62.8232 35.7588 62.8232 35.1129 62.7642 34.5258C62.6464 32.8817 61.3498 31.7661 59.5818 31.7661Z" fill="white"/>
<path d="M16.5603 18.7895C16.5603 17.6739 16.5014 16.5583 16.3246 15.4427C16.0889 13.9747 15.3817 12.6829 13.7315 12.1545C13.1422 11.9196 12.4939 11.8022 11.9046 11.8022C8.2507 11.9196 6.89523 14.738 6.77736 14.6793C6.77736 14.1509 6.77736 13.505 6.77736 12.9178C6.77736 12.5655 6.48269 12.2719 6.12909 12.2719C4.36108 12.2719 2.59308 12.2719 0.82507 12.2719C0.471469 12.2719 0.176801 12.5655 0.176801 12.9178C0.117867 18.6134 0.0589336 24.3677 0 30.122C0 30.4743 0.294668 30.8266 0.707203 30.8266C2.53414 30.8266 4.30215 30.8266 6.12909 30.8266C6.48269 30.8266 6.77736 30.533 6.77736 30.1807C6.77736 28.4779 6.8363 26.7751 6.8363 25.0723C6.8363 24.0741 6.8363 23.0759 6.89523 22.0777V19.5529C6.89523 18.7895 7.42563 18.0849 8.19177 17.9088C9.19364 17.7326 10.1366 18.496 10.1366 19.4941C10.1366 19.4941 10.1366 27.5971 10.1366 30.122C10.1366 30.533 10.4902 30.8853 10.8438 30.8853C12.6707 30.8853 15.3227 30.8853 15.3227 30.8853H15.7942C16.2067 30.8853 16.5014 30.533 16.5603 30.1807C16.5603 29.7109 16.5603 29.1238 16.5603 28.9476C16.5603 25.4833 16.5603 22.1364 16.5603 18.7895Z" fill="white"/>
<path d="M54.8082 35.1716V19.2593C54.8082 18.5546 54.5135 12.1545 47.854 11.8609H45.3788C45.3788 9.2186 45.3788 6.57632 45.3199 3.64046C45.3199 2.11381 44.7895 0.939468 43.1393 0.293578C40.1337 -0.822049 37.7764 0.822034 37.8353 4.05148C37.8353 4.22763 37.8353 4.40379 37.8353 4.57994V29.2999V29.3586C37.8353 29.5348 37.8353 29.7109 37.8353 29.8871V30.1807C37.8942 30.5917 38.0121 30.944 38.3068 31.2376C38.5425 31.4724 38.8961 31.6486 39.2497 31.7073H39.3086H41.4892H44.0823C44.8484 31.7073 45.4377 31.1201 45.4377 30.3568V20.0226C45.4377 19.6703 45.7324 19.3767 46.086 19.3767H46.6753C47.0289 19.3767 47.3236 19.6703 47.3236 20.0226V28.8889C47.3236 29.0063 47.3236 29.065 47.2647 29.1825C47.2647 30.5917 47.2647 32.0009 47.3236 33.4101V35.4652C47.3236 36.8157 47.3236 38.2249 47.3826 39.5754C47.4415 41.9241 48.6791 43.0985 50.9775 43.1572C53.3938 43.2159 54.7492 41.9828 54.8082 39.6929C54.8671 38.1662 54.8082 36.6983 54.8082 35.1716Z" fill="white"/>
<path d="M50.3292 64.9413C57.5781 64.9413 60.1711 60.5375 60.5837 59.6567C60.5837 59.598 60.6426 59.5393 60.6426 59.4806C62.6464 55.018 62.941 50.2032 62.941 45.3884C59.2282 46.8564 57.7549 46.6215 55.3386 43.8031C54.8671 43.2746 54.7492 43.5682 54.3367 43.7443C49.5042 46.093 45.5556 43.9205 45.4967 38.7534C45.4967 37.7552 45.4967 36.757 45.4377 35.7001H45.0841C44.8484 38.6947 42.7268 40.9846 39.014 41.9828C36.2441 42.7461 33.3564 42.7461 30.4686 42.6874C29.9382 42.6874 29.1721 42.3351 28.9953 42.9223C28.8185 43.5682 29.6435 43.8031 30.1739 44.0966C30.5865 44.3315 31.0579 44.5664 31.4705 44.8012C35.5369 47.0912 39.4854 49.4399 42.4321 52.8455C44.0823 54.7245 45.2609 56.8383 45.4377 59.3044C45.4967 59.7154 45.5556 60.1264 44.8484 60.1264C44.318 60.1264 43.9055 60.1264 43.7876 59.4218C43.3161 55.1355 40.1337 52.4345 36.7745 49.9096C34.2993 48.0894 31.5883 46.6215 28.8774 45.1536C27.7577 44.5077 26.9915 43.6269 27.3451 42.2764C27.6987 40.8672 28.8774 41.2195 29.9382 41.2782C33.4153 41.4544 36.8334 41.3369 40.0159 39.9864C42.6089 38.9295 43.8465 36.8744 43.434 34.467C43.3161 33.5275 42.9625 32.9991 41.7839 33.0578C40.3105 33.1165 38.7782 32.9991 37.3049 32.9991C36.7745 32.9991 35.9494 32.7055 36.0673 33.7624C36.1262 34.5257 36.1262 35.1716 37.246 35.1129C38.13 35.0542 39.014 35.1716 39.898 35.1129C40.6052 35.0542 40.8999 35.2891 40.8999 35.9937C40.8999 36.8157 40.4284 36.757 39.8391 36.6983C38.955 36.6395 38.071 36.5221 37.246 36.4634C34.7118 36.4047 34.594 36.4047 34.594 34.056C34.594 32.9404 34.1814 32.6468 33.0617 32.6468C30.9401 32.5881 28.8185 32.4706 26.6969 32.3532C25.4593 32.2945 24.6931 32.9404 24.1627 34.056V33.9386C22.0411 38.9295 20.9803 44.5664 20.332 48.383C19.507 53.1391 19.8606 55.018 21.4518 57.719C23.9859 62.0054 27.6987 64.8238 33.1796 65.0587H48.9738C49.3274 65 49.7988 64.9413 50.3292 64.9413Z" fill="white"/>
</g>
<defs>
<clipPath id="clip0">
<rect width="63" height="65" fill="white"/>
</clipPath>
</defs>
</svg>
